
    <svg width="208" height="47" viewBox="0 0 208 47" fill="none" xmlns="http://www.w3.org/2000/svg">
      <g clip-path="url(#clip0_5005_24728)">
      <path d="M31.921 46.5365C27.4803 46.5365 23.3994 44.9871 20.1115 42.0591C16.7261 44.798 12.4256 46.384 7.80184 46.384C6.70995 46.384 5.61196 46.2925 4.53227 46.1095C2.99508 45.8472 1.647 44.9383 0.829602 43.6085C-0.0182905 42.236 -0.225689 40.5586 0.250107 39.0031L9.69283 8.19833C11.1934 3.29397 15.6525 0 20.7886 0C21.9354 0 23.0761 0.170799 24.1802 0.506296C25.9553 1.04919 27.5413 1.98858 28.8528 3.25737H36.0019C37.1426 3.25737 38.2406 3.73317 39.0214 4.56276C39.7961 5.38625 40.2048 6.50864 40.1377 7.64323C40.0462 9.09502 39.6985 10.5102 39.0885 11.8522C38.387 13.4016 37.3866 14.7802 36.1056 15.9514C35.2455 16.7383 34.2817 17.4154 33.2325 17.9582C33.2691 18.0375 33.3057 18.1168 33.3362 18.2022L41.1381 38.3931C41.7298 39.851 41.6627 41.5467 40.9368 42.9863C40.2353 44.3771 38.9726 45.4019 37.4659 45.7984C35.5749 46.2925 33.7083 46.5365 31.921 46.5365Z" fill="white"/>
      <path d="M36.0019 6.91748C36.2764 6.91748 36.5021 7.14318 36.4838 7.41768C36.4228 8.42417 36.1788 9.41236 35.7518 10.3457C35.2638 11.4314 34.5379 12.4196 33.629 13.2553C32.7201 14.091 31.6405 14.7498 30.4571 15.2012C29.2737 15.6526 26.9923 15.8844 25.7113 15.8844V6.92358H36.0019V6.91748Z" fill="#FFCB14"/>
      <path fill-rule="evenodd" clip-rule="evenodd" d="M29.9264 19.5259L25.8516 32.8055C25.1135 35.2149 23.9179 37.3621 22.3868 39.1799C26.2847 42.7545 31.2257 43.639 36.5509 42.2543C37.6489 41.9676 38.1552 40.7598 37.7282 39.7167L29.9264 19.5259Z" fill="#FF6B00"/>
      <path fill-rule="evenodd" clip-rule="evenodd" d="M13.1942 9.2717C14.4752 5.08713 18.922 2.73255 23.1188 4.00744C27.3156 5.28843 29.6762 9.71699 28.3953 13.9016L22.9968 31.506C20.6361 39.2163 12.9075 43.8218 5.14836 42.5042C4.03207 42.3151 3.42207 41.1561 3.75147 40.0764L13.1942 9.2717ZM21.2217 15.8779C23.7044 15.8779 25.7174 13.8711 25.7174 11.3945C25.7174 8.9179 23.7044 6.91102 21.2217 6.91102C18.739 6.91102 16.7261 8.9179 16.7261 11.3945C16.7261 13.8711 18.739 15.8779 21.2217 15.8779ZM21.2217 14.2493C22.8016 14.2493 24.0826 12.9744 24.0826 11.4006C24.0826 10.1013 23.2103 9.0033 22.0147 8.6617C22.0147 8.7715 22.0025 8.8813 21.9842 8.9911C21.789 10.205 20.6483 11.0285 19.4344 10.8333C19.0928 10.7784 18.7817 10.6503 18.5194 10.4673C18.4157 10.7601 18.3669 11.0712 18.3669 11.3945C18.3669 12.9683 19.6479 14.2432 21.2278 14.2432L21.2217 14.2493Z" fill="black"/>
      </g>
      <path d="M197.258 21.2516C194.188 21.2516 191.733 23.0493 191.075 25.8554L203.308 25.8554C202.651 23.0493 200.327 21.2516 197.258 21.2516ZM206.115 35.3702C204.185 37.694 201.16 39.0094 197.477 39.0094C190.549 39.0094 185.989 34.5371 185.989 28.0039C185.989 21.4269 190.549 16.9546 197.258 16.9546C203.352 16.9546 208 21.3392 208 26.6885V26.9078C208 28.6178 206.86 29.7139 205.15 29.7139L191.075 29.7139C191.645 32.7832 194.101 34.7125 197.477 34.7125C199.757 34.7125 201.511 33.7917 202.563 32.564C203.089 31.9501 203.659 31.687 204.361 31.687C205.764 31.687 206.641 32.564 206.641 33.9232C206.641 34.4494 206.465 34.9317 206.115 35.3702Z" fill="white"/>
      <path d="M174.074 16.9546C179.598 16.9546 182.273 20.1554 182.273 26.2501V36.1594C182.273 37.7817 181.352 38.7463 179.861 38.7463C178.371 38.7463 177.45 37.7817 177.45 36.1594V26.8201C177.45 23.2685 175.959 21.3831 173.153 21.3831C170.215 21.3831 168.461 23.6631 168.461 27.4778V36.1594C168.461 37.7817 167.584 38.7463 166.05 38.7463C164.559 38.7463 163.638 37.7817 163.638 36.1594V26.8201C163.638 23.2685 162.147 21.3831 159.341 21.3831C156.403 21.3831 154.65 23.6631 154.65 27.4778V36.1594C154.65 37.7817 153.773 38.7463 152.238 38.7463C150.747 38.7463 149.826 37.7817 149.826 36.1594V19.8046C149.826 18.2261 150.747 17.2177 152.238 17.2177C153.729 17.2177 154.606 18.1823 154.65 19.7169H154.737C156.009 17.9631 158.07 16.9546 160.525 16.9546C163.463 16.9546 165.611 18.0946 166.839 20.2869H166.927C168.417 18.1384 170.829 16.9546 174.074 16.9546Z" fill="white"/>
      <path d="M146.753 34.0543C146.753 34.5366 146.622 34.9751 146.446 35.3259C145.219 37.7374 142.72 39.009 139.343 39.009C134.301 39.009 131.276 35.852 131.276 30.5466V12.8326C131.276 11.2102 132.196 10.2456 133.687 10.2456C135.178 10.2456 136.099 11.2102 136.099 12.8326V17.4803L143.377 17.4803C144.868 17.4803 145.789 18.3134 145.789 19.7165C145.789 21.0757 144.868 21.9088 143.377 21.9088H136.099V30.6781C136.099 33.1774 137.414 34.5805 139.563 34.5805C140.966 34.5805 142.018 33.9228 142.676 32.8704C143.07 32.2566 143.684 31.8181 144.517 31.8181C145.789 31.8181 146.753 32.6074 146.753 34.0543Z" fill="white"/>
      <path d="M125.978 17.0859C127.425 17.0859 128.39 18.0067 128.39 19.4975C128.39 20.9883 127.425 21.9091 125.978 21.9091C121.769 21.9091 119.314 24.1452 119.314 29.2753V36.1592C119.314 37.7815 118.437 38.7462 116.902 38.7462C115.411 38.7462 114.49 37.7815 114.49 36.1592V19.8044C114.49 18.2259 115.411 17.2175 116.902 17.2175C118.437 17.2175 119.314 18.2259 119.314 19.8044V20.5937H119.401C120.717 18.3136 122.953 17.0859 125.978 17.0859Z" fill="white"/>
      <path d="M100.006 21.2516C96.9363 21.2516 94.4808 23.0493 93.8231 25.8554L106.056 25.8554C105.399 23.0493 103.075 21.2516 100.006 21.2516ZM108.863 35.3702C106.933 37.694 103.908 39.0094 100.225 39.0094C93.297 39.0094 88.7369 34.5371 88.7369 28.0039C88.7369 21.4269 93.297 16.9546 100.006 16.9546C106.1 16.9546 110.748 21.3392 110.748 26.6885V26.9078C110.748 28.6178 109.608 29.7139 107.898 29.7139L93.8231 29.7139C94.3931 32.7832 96.8486 34.7125 100.225 34.7125C102.505 34.7125 104.259 33.7917 105.311 32.564C105.837 31.9501 106.407 31.687 107.109 31.687C108.512 31.687 109.389 32.564 109.389 33.9232C109.389 34.4494 109.213 34.9317 108.863 35.3702Z" fill="white"/>
      <path d="M82.1761 7.52734C83.7107 7.52734 84.5876 8.49197 84.5876 10.1143V36.1592C84.5876 37.7815 83.7107 38.7461 82.1761 38.7461C80.6853 38.7461 79.7645 37.7815 79.7645 36.1592V10.1143C79.7645 8.49197 80.6853 7.52734 82.1761 7.52734Z" fill="white"/>
      <path d="M72.2166 17.2177C73.7512 17.2177 74.672 18.2261 74.672 19.8046V36.1594C74.672 37.7817 73.7512 38.7463 72.2166 38.7463C70.7696 38.7463 69.8489 37.7817 69.8489 36.1594V35.9402H69.7612C68.1388 37.9133 65.6396 39.0094 62.4826 39.0094C56.3003 39.0094 52.2225 34.6248 52.2225 28.0039C52.2225 21.3392 56.3003 16.9546 62.4826 16.9546C65.6396 16.9546 68.1388 18.0508 69.7612 20.0239H69.8489V19.8046C69.8489 18.2261 70.7696 17.2177 72.2166 17.2177ZM63.4473 34.5809C67.2181 34.5809 69.8489 31.8624 69.8489 28.0039C69.8489 24.1016 67.2181 21.3831 63.4473 21.3831C59.7203 21.3831 57.1334 24.0577 57.1334 28.0039C57.1334 31.9063 59.7203 34.5809 63.4473 34.5809Z" fill="white"/>
      <defs>
      <clipPath id="clip0_5005_24728">
      <rect width="41.5406" height="46.5365" fill="white"/>
      </clipPath>
      </defs>
    </svg>


